<?xml version="1.0" encoding="UTF-8"?>
<svg version="1.1" xmlns="http://www.w3.org/2000/svg" width="512" height="512">
<path d="M0 0 C1.14651019 0.31556264 1.14651019 0.31556264 2.3161822 0.63750029 C2.33904617 53.48902474 2.3566792 106.3405487 2.36724753 159.19207713 C2.36849831 165.42461728 2.36979262 171.65715742 2.37111384 177.88969755 C2.3715073 179.75096178 2.3715073 179.75096178 2.37190872 181.64982731 C2.37626595 201.76975032 2.38415378 221.88967049 2.39333499 242.00959181 C2.40267007 262.63797283 2.40823749 283.26635235 2.41027069 303.8947354 C2.41164622 316.63455769 2.41599844 329.37437195 2.42409866 342.11419178 C2.42936432 350.83761618 2.43098691 359.56103639 2.42968357 368.28446227 C2.42903991 373.32547998 2.43006088 378.3664836 2.43538767 383.40749884 C2.44022059 388.01449489 2.44052156 392.62146727 2.43708109 397.22846437 C2.43665529 398.90276497 2.43795193 400.577067 2.44106538 402.25136476 C2.44502767 404.5120208 2.44294666 406.77258921 2.43923002 409.03324366 C2.43960975 410.29353543 2.43998947 411.55382721 2.44038069 412.85230964 C2.3161822 415.63750029 2.3161822 415.63750029 1.3161822 416.63750029 C-0.8782231 416.73558001 -3.07586111 416.76121154 -5.27245706 416.76054811 C-5.97259761 416.76170196 -6.67273816 416.7628558 -7.39409509 416.76404461 C-9.76979098 416.76671801 -12.1454208 416.76218323 -14.52111334 416.7577548 C-16.2296439 416.75819036 -17.93817441 416.75906497 -19.64670455 416.76034397 C-24.36470521 416.76259203 -29.08268339 416.75856342 -33.80068117 416.75356591 C-38.87978399 416.74926602 -43.95888543 416.7507075 -49.03798956 416.75146818 C-57.84554942 416.75199371 -66.65310191 416.74884389 -75.46065992 416.74323034 C-88.19506755 416.73511926 -100.9294716 416.73250053 -113.66388153 416.73124235 C-134.32230307 416.72905121 -154.98072067 416.72238946 -175.63914007 416.71293974 C-195.71238206 416.70376721 -215.78562297 416.6966856 -235.85886663 416.69243193 C-237.09522008 416.6921692 -238.33157352 416.69190648 -239.60539223 416.69163579 C-245.80752708 416.6903308 -252.00966195 416.68906708 -258.21179682 416.68782389 C-309.7024732 416.67744936 -361.19314531 416.65982937 -412.6838178 416.63750029 C-413.3438178 414.98750029 -414.0038178 413.33750029 -414.6838178 411.63750029 C-410.24499749 406.46277591 -405.67943168 401.48680754 -400.85288519 396.6728549 C-400.20255835 396.02026251 -399.55223151 395.36767011 -398.8821978 394.69530219 C-396.72532512 392.53215248 -394.56494872 390.37253837 -392.40452093 388.21293974 C-390.84816467 386.65358819 -389.29201264 385.09403278 -387.73604864 383.53428984 C-383.52574889 379.3151869 -379.31223927 375.099304 -375.09785551 370.88428092 C-372.46311226 368.24882547 -369.82908294 365.61265866 -367.19530767 362.97623587 C-358.47572665 354.24789195 -349.75409605 345.52160301 -341.02975667 336.79801533 C-340.56062126 336.32891988 -340.09148584 335.85982443 -339.60813421 335.37651396 C-339.13842115 334.90684177 -338.66870808 334.43716959 -338.18476129 333.95326491 C-330.56504807 326.33395855 -322.95034215 318.70966955 -315.33787894 311.08312032 C-307.50703348 303.23789988 -299.67236144 295.39651618 -291.83398479 287.55881995 C-287.43903485 283.16412482 -283.04564747 278.76789512 -278.6561231 274.36778021 C-274.53028364 270.23225716 -270.39966711 266.10156591 -266.26534742 261.97452116 C-264.75072812 260.46094713 -263.23780919 258.94566931 -261.72673887 257.42855215 C-259.66068096 255.35476392 -257.58852106 253.28726626 -255.51475042 251.22119474 C-254.92125437 250.62255513 -254.32775832 250.02391552 -253.71627754 249.40713531 C-253.1527972 248.84825376 -252.58931685 248.28937221 -252.00876135 247.71355486 C-251.29393378 246.99840124 -251.29393378 246.99840124 -250.56466526 246.26880008 C-247.7736813 243.84811915 -244.69015142 241.78488144 -241.6838178 239.63750029 C-241.3538178 278.90750029 -241.0238178 318.17750029 -240.6838178 358.63750029 C-218.15627446 358.75783254 -218.15627446 358.75783254 -195.62868589 358.83851576 C-187.56639988 358.86060659 -179.50428099 358.88856854 -171.44211859 358.9392581 C-165.05484014 358.97939761 -158.6676883 359.00499676 -152.28028721 359.01385427 C-148.90482053 359.01902384 -145.53 359.03315433 -142.15459722 359.06042051 C-120.31550828 359.22969626 -100.50126567 358.62920132 -83.6838178 342.83281279 C-72.0353268 330.04677383 -69.89114147 314.64022343 -70.50461859 298.09160185 C-71.40699182 285.73376018 -77.75121993 274.78115429 -86.60178655 266.38750029 C-89.75100417 263.74050311 -93.1065883 261.65112201 -96.6838178 259.63750029 C-97.6738178 259.03937529 -98.6638178 258.44125029 -99.6838178 257.82500029 C-100.3438178 257.43312529 -101.0038178 257.04125029 -101.6838178 256.63750029 C-101.4650678 254.31328154 -101.4650678 254.31328154 -100.6838178 251.63750029 C-98.7150678 250.11796904 -98.7150678 250.11796904 -96.1838178 248.82500029 C-85.18756913 242.64451244 -77.17392881 234.03984676 -72.7463178 222.07500029 C-69.09254175 207.77960147 -71.53490855 194.39961457 -78.9338178 181.88750029 C-87.54739953 169.0311352 -101.46629602 161.7325404 -116.3635053 158.56718779 C-124.62930897 157.12201479 -133.00355246 157.17086509 -141.3713178 157.01250029 C-143.05558084 156.97423264 -144.73982615 156.93517612 -146.42405218 156.89531279 C-150.51049333 156.80028584 -154.59702551 156.71591468 -158.6838178 156.63750029 C-154.74090125 151.92238076 -150.642118 147.44427209 -146.30135626 143.09440947 C-145.68722468 142.47519007 -145.07309311 141.85597068 -144.44035149 141.21798706 C-142.40007206 139.16212198 -140.35632171 137.10974527 -138.31247991 135.05742216 C-136.84172624 133.57711984 -135.37114459 132.0966466 -133.90072149 130.61601591 C-129.09145625 125.77551925 -124.27676359 120.94044173 -119.46116155 116.10625029 C-118.64137547 115.28316689 -117.8215894 114.46008348 -116.97696131 113.61205816 C-109.24673871 105.85109226 -101.51449384 98.09214658 -93.77737612 90.33805418 C-83.88421307 80.42292727 -74.00127118 70.49784816 -64.13184822 60.55908871 C-57.18673462 53.56683952 -50.23026234 46.58602194 -43.26518154 39.61366272 C-39.10540337 35.44891812 -34.9508839 31.27921902 -30.80846494 27.09720182 C-26.91853045 23.17056662 -23.01480041 19.25820713 -19.09981245 15.35655546 C-17.66306954 13.91975835 -16.23148803 12.47777936 -14.80540746 11.03039885 C-12.8635409 9.06107949 -10.90424797 7.1109665 -8.93929571 5.16472197 C-8.37431039 4.58294172 -7.80932507 4.00116147 -7.22721899 3.40175152 C-3.28779231 -0.44407775 -3.28779231 -0.44407775 0 0 Z " fill="#33303E" transform="translate(456.6838178038597,42.362499713897705)"/>
<path d="M0 0 C1.8181295 -0.01429802 1.8181295 -0.01429802 3.67298889 -0.02888489 C5.64941628 -0.02751778 5.64941628 -0.02751778 7.66577148 -0.02612305 C9.031409 -0.03001123 10.39704531 -0.03434616 11.76268005 -0.03910828 C14.63186549 -0.04658096 17.50092797 -0.04627412 20.37011719 -0.04101562 C24.02608321 -0.0352547 27.68153703 -0.05206387 31.33741856 -0.0753603 C34.16266265 -0.09019069 36.98778653 -0.0909562 39.81306267 -0.08785057 C41.8097698 -0.08860658 43.8064584 -0.10242364 45.80311584 -0.11653137 C55.56399573 -0.06726799 63.39968185 1.08769925 71.22436523 7.2746582 C77.05512632 13.42935046 77.69123179 19.89961672 77.53295898 28.08325195 C76.93535221 34.26356503 74.51092498 38.31117831 70.09936523 42.5871582 C61.72612502 48.93228319 51.84326998 48.70949892 41.75561523 48.63793945 C40.38464356 48.63741966 39.01367114 48.63794196 37.6427002 48.63945007 C34.79187672 48.63936103 31.94134008 48.62906196 29.09057617 48.61083984 C25.43422925 48.58798127 21.77829385 48.58764671 18.12189484 48.59435749 C15.30123214 48.59769184 12.48066375 48.59108041 9.66001892 48.58122826 C7.65580014 48.57551129 5.65156532 48.57681165 3.64733887 48.57820129 C2.43848022 48.56866928 1.22962158 48.55913727 -0.01586914 48.54931641 C-1.08268921 48.54470901 -2.14950928 48.54010162 -3.24865723 48.53535461 C-5.77563477 48.2746582 -5.77563477 48.2746582 -7.77563477 46.2746582 C-8.02960205 44.37719727 -8.02960205 44.37719727 -8.03442383 42.0402832 C-8.04072815 41.16597656 -8.04703247 40.29166992 -8.05352783 39.39086914 C-8.04947937 38.44501953 -8.04543091 37.49916992 -8.04125977 36.5246582 C-8.04317322 35.55560547 -8.04508667 34.58655273 -8.04705811 33.58813477 C-8.04842056 31.53702536 -8.04471995 29.48590735 -8.03637695 27.43481445 C-8.02567836 24.28748281 -8.0362703 21.140722 -8.04907227 17.9934082 C-8.04775068 16.0038236 -8.04518831 14.01423936 -8.04125977 12.0246582 C-8.04530823 11.07880859 -8.04935669 10.13295898 -8.05352783 9.15844727 C-8.04722351 8.28414063 -8.04091919 7.40983398 -8.03442383 6.5090332 C-8.03283264 5.73785156 -8.03124146 4.96666992 -8.02960205 4.17211914 C-7.4001243 -0.53088601 -3.87183822 0.01667458 0 0 Z " fill="#33303E" transform="translate(265.775634765625,316.725341796875)"/>
<path d="M0 0 C1.72319458 -0.01429802 1.72319458 -0.01429802 3.48120117 -0.02888489 C4.73006104 -0.02797348 5.9789209 -0.02706207 7.265625 -0.02612305 C8.54864502 -0.03040817 9.83166504 -0.0346933 11.15356445 -0.03910828 C13.87732049 -0.04658146 16.60094701 -0.04627431 19.32470703 -0.04101562 C22.79001546 -0.03526248 26.25478212 -0.05204425 29.72000122 -0.0753603 C33.04772977 -0.09379348 36.37534591 -0.08990835 39.703125 -0.08862305 C41.55212402 -0.10243767 41.55212402 -0.10243767 43.43847656 -0.11653137 C52.98512187 -0.06588115 61.96004969 0.71295802 69.109375 7.6262207 C73.76150421 13.07954994 74.00928154 18.46815647 73.79296875 25.4074707 C73.16613496 31.88769605 70.5981984 35.69218586 65.72265625 39.9152832 C57.84869704 44.76508463 50.49008255 44.70256509 41.4609375 44.63793945 C40.10952759 44.63741997 38.75811693 44.63794108 37.40670776 44.63945007 C34.59100901 44.63936086 31.77559962 44.62902826 28.95996094 44.61083984 C25.34839494 44.58802263 21.73724598 44.58763743 18.12562752 44.59435749 C15.34270505 44.59769288 12.55987809 44.59107775 9.77697372 44.58122826 C7.79713478 44.57550792 5.81727959 44.57681206 3.83743286 44.57820129 C2.64213959 44.56866928 1.44684631 44.55913727 0.21533203 44.54931641 C-0.83975555 44.54470901 -1.89484314 44.54010162 -2.98190308 44.53535461 C-5.484375 44.2746582 -5.484375 44.2746582 -7.484375 42.2746582 C-7.68443802 39.28503717 -7.76410423 36.39003471 -7.75 33.3996582 C-7.75191345 32.51938965 -7.7538269 31.63912109 -7.75579834 30.73217773 C-7.75716052 28.86938186 -7.75346182 27.00657651 -7.74511719 25.14379883 C-7.73441807 22.28616084 -7.74501132 19.42915155 -7.7578125 16.5715332 C-7.75649091 14.76424014 -7.75392853 12.95694748 -7.75 11.1496582 C-7.75404846 10.29130371 -7.75809692 9.43294922 -7.76226807 8.54858398 C-7.70766468 1.66960385 -6.89823683 0.03135874 0 0 Z " fill="#33303E" transform="translate(265.484375,235.725341796875)"/>
</svg>
